<svg width="93" height="46" viewBox="0 0 93 46" fill="none" xmlns="http://www.w3.org/2000/svg">
<path d="M22.7159 45.2735C28.879 45.2735 32.9817 42.2988 36.9861 38.7436L46.1078 29.5493L46.087 29.5293L56.0617 19.5169C56.9353 18.7914 63.3313 10.1575 69.6766 10.1575C76.432 10.1575 81.9082 15.6147 81.9082 22.3465C81.9082 29.0783 76.432 34.5355 69.6766 34.5355C64.0451 34.5355 61.124 31.1573 56.5538 25.8719C51.9837 20.5866 56.5537 25.8717 56.5537 25.8717C56.1674 25.426 55.7821 24.9795 55.3946 24.5349L48.279 31.6257L56.5928 39.73C59.8751 43.2133 63.9743 45.2735 69.7494 45.2735C82.2951 45.2735 92.4653 35.1387 92.4653 22.6367C92.4653 10.1348 82.2951 0 69.7494 0C64.5286 0 60.7404 1.357 57.6716 4.00826C53.645 7.55501 49.9751 11.5696 46.1553 15.3352L46.1455 15.3256L34.4731 27.3016C32.0352 29.8195 27.1375 34.8258 22.4247 34.8258C15.6693 34.8258 10.193 29.3685 10.193 22.6367C10.193 15.9049 15.6693 10.4477 22.4247 10.4477C28.0562 10.4477 30.9773 13.826 35.5474 19.1113C35.9226 19.5452 36.3089 19.992 36.7087 20.4508L44.0517 13.2727L36.7064 6.07074C33.2869 2.15974 28.9905 0 22.7159 0C10.1702 0 0 10.1348 0 22.6367C0 35.1387 10.1702 45.2735 22.7159 45.2735Z" fill="white"/>
<path d="M22.7159 45.2735C28.879 45.2735 32.9817 42.2988 36.9861 38.7436L46.1078 29.5493L46.087 29.5293L56.0617 19.5169C56.9353 18.7914 63.3313 10.1575 69.6766 10.1575C76.432 10.1575 81.9082 15.6147 81.9082 22.3465C81.9082 29.0783 76.432 34.5355 69.6766 34.5355C64.0451 34.5355 61.124 31.1573 56.5538 25.8719C51.9837 20.5866 56.5537 25.8717 56.5537 25.8717C56.1674 25.426 55.7821 24.9795 55.3946 24.5349L48.279 31.6257L56.5928 39.73C59.8751 43.2133 63.9743 45.2735 69.7494 45.2735C82.2951 45.2735 92.4653 35.1387 92.4653 22.6367C92.4653 10.1348 82.2951 0 69.7494 0C64.5286 0 60.7404 1.357 57.6716 4.00826C53.645 7.55501 49.9751 11.5696 46.1553 15.3352L46.1455 15.3256L34.4731 27.3016C32.0352 29.8195 27.1375 34.8258 22.4247 34.8258C15.6693 34.8258 10.193 29.3685 10.193 22.6367C10.193 15.9049 15.6693 10.4477 22.4247 10.4477C28.0562 10.4477 30.9773 13.826 35.5474 19.1113C35.9226 19.5452 36.3089 19.992 36.7087 20.4508L44.0517 13.2727L36.7064 6.07074C33.2869 2.15974 28.9905 0 22.7159 0C10.1702 0 0 10.1348 0 22.6367C0 35.1387 10.1702 45.2735 22.7159 45.2735Z" fill="url(#paint0_linear_2255_68)" fill-opacity="0.72"/>
<defs>
<linearGradient id="paint0_linear_2255_68" x1="97.1978" y1="6.02195" x2="-17.7445" y2="47.7795" gradientUnits="userSpaceOnUse">
<stop offset="0.169951" stop-color="#1E1BF9"/>
<stop offset="0.787019" stop-color="#FADF11"/>
</linearGradient>
</defs>
</svg>
